Coordinates
version=1
nRows=9
nColumns=60
inDegrees=yes

Units are S.I. units (second, meters, Newtons, ...)
If the header above contains a line with 'inDegrees', this indicates whether rotational values are in degrees (yes) or radians (no).

endheader
time	pelvis_tilt	pelvis_list	pelvis_rotation	pelvis_tx	pelvis_ty	pelvis_tz	hip_flexion_r	hip_adduction_r	hip_rotation_r	knee_angle_r_beta	knee_angle_r	ankle_angle_r	subtalar_angle_r	mtp_angle_r	hip_flexion_l	hip_adduction_l	hip_rotation_l	knee_angle_l_beta	knee_angle_l	ankle_angle_l	subtalar_angle_l	mtp_angle_l	L5_S1_Flex_Ext	L5_S1_Lat_Bending	L5_S1_axial_rotation	L4_L5_Flex_Ext	L4_L5_Lat_Bending	L4_L5_axial_rotation	L3_L4_Flex_Ext	L3_L4_Lat_Bending	L3_L4_axial_rotation	L2_L3_Flex_Ext	L2_L3_Lat_Bending	L2_L3_axial_rotation	L1_L2_Flex_Ext	L1_L2_Lat_Bending	L1_L2_axial_rotation	L1_T12_Flex_Ext	L1_T12_Lat_Bending	L1_T12_axial_rotation	Abs_r3	Abs_r2	Abs_r1	Abs_t1	Abs_t2	arm_flex_r	arm_add_r	arm_rot_r	elbow_flex_r	pro_sup_r	wrist_flex_r	wrist_dev_r	arm_flex_l	arm_add_l	arm_rot_l	elbow_flex_l	pro_sup_l	wrist_flex_l	wrist_dev_l
     39.38000000	      0.19141697	     13.48030756	     91.78730819	      0.40715061	      0.94499273	      0.28843647	     -3.52410659	     -4.41430054	     -1.32214381	      0.27875042	    -15.97122262	      9.19951258	      0.00000000	      0.00000000	     -3.88999446	     -6.46851151	     -2.83954813	      0.23473558	    -13.44935800	      9.35645967	      0.00000000	      0.00000000	     -6.21207833	      0.11903789	     -0.12177415	    -11.53645067	      0.15832039	     -0.12938503	    -10.20582349	      0.28942872	     -0.12938503	     -7.09978432	      0.28942872	     -0.10655238	     -5.76853594	      0.24274206	     -0.09894150	     -3.54958156	      0.18438969	     -0.09133061	    -44.37225430	      1.34658041	     -0.67727129	      0.00000000	      0.00000000	     44.60418037	    -26.79730081	     14.19264491	     74.68519389	     58.41702007	     -1.59419956	     27.35323454	     52.43593576	    -26.66445839	     23.53917995	     67.87234732	     60.73576571	      6.04488732	     26.77729577
     39.39000000	      0.19960698	     13.25368927	     91.77952047	      0.40694131	      0.94484260	      0.28941449	     -3.17086588	     -4.42862843	     -1.29331907	      0.27970817	    -16.02609752	      9.04567095	      0.00000000	      0.00000000	     -3.60643384	     -6.44240945	     -2.78953593	      0.23344844	    -13.37561035	      9.14184102	      0.00000000	      0.00000000	     -6.21683906	      0.11925868	     -0.12364956	    -11.54529183	      0.15861404	     -0.13137766	    -10.21364490	      0.28996555	     -0.13137766	     -7.10522537	      0.28996555	     -0.10819337	     -5.77295676	      0.24319230	     -0.10046527	     -3.55230184	      0.18473169	     -0.09273717	    -44.40625976	      1.34907801	     -0.68770177	      0.00000000	      0.00000000	     46.02888585	    -26.34255607	     14.66352765	     72.90597846	     58.38477179	     -1.60581855	     27.16118285	     54.03079038	    -26.26451912	     24.34653370	     65.94641685	     60.62673669	      6.09443648	     26.42851209
     39.40000000	      0.18898708	     13.04426370	     91.76250021	      0.40678435	      0.94471848	      0.29041894	     -2.83485836	     -4.46072917	     -1.24893353	      0.28071048	    -16.08352565	      8.90352028	      0.00000000	      0.00000000	     -3.34176009	     -6.40115344	     -2.76362624	      0.23221394	    -13.30487868	      8.92132853	      0.00000000	      0.00000000	     -6.22767577	      0.11990897	     -0.09247289	    -11.56541667	      0.15947893	     -0.09825244	    -10.23144852	      0.29154668	     -0.09825244	     -7.11761064	      0.29154668	     -0.08091377	     -5.78301972	      0.24451838	     -0.07513422	     -3.55849393	      0.18573900	     -0.06935466	    -44.48366525	      1.35643428	     -0.51430645	      0.00000000	      0.00000000	     47.17293590	    -26.05508246	     14.89385243	     71.39697547	     58.17464400	     -1.32936102	     25.57115563	     55.82468212	    -25.80386873	     25.72506012	     63.75625553	     59.53375683	      6.60561686	     23.76257178
     39.41000000	      0.22045473	     12.78035062	     91.73094304	      0.40659955	      0.94455569	      0.29144785	     -2.43935065	     -4.44405942	     -1.16437238	      0.28147175	    -16.12714318	      8.67684804	      0.00000000	      0.00000000	     -2.99875145	     -6.39609331	     -2.70317278	      0.23162273	    -13.27100473	      8.67344837	      0.00000000	      0.00000000	     -6.23615266	      0.12182403	     -0.10059137	    -11.58115910	      0.16202595	     -0.10687833	    -10.24537520	      0.29620294	     -0.10687833	     -7.12729887	      0.29620294	     -0.08801745	     -5.79089136	      0.24842355	     -0.08173049	     -3.56333763	      0.18870542	     -0.07544353	    -44.54421480	      1.37809774	     -0.55945903	      0.00000000	      0.00000000	     48.54230371	    -25.40262881	     15.09766882	     69.69574804	     58.13724345	     -1.33836242	     25.53343933	     57.16355831	    -25.28870264	     26.00501697	     61.96309995	     59.40970341	      6.55931755	     23.66930399
     39.42000000	      0.22979457	     12.46971860	     91.68318692	      0.40643542	      0.94427974	      0.29241267	     -2.03378898	     -4.47564172	     -1.16536149	      0.28069049	    -16.08238042	      8.55407119	      0.00000000	      0.00000000	     -2.63391903	     -6.37573999	     -2.75118319	      0.23026195	    -13.19303818	      8.53183062	      0.00000000	      0.00000000	     -6.23433581	      0.12097801	     -0.09699710	    -11.57778502	      0.16090075	     -0.10305942	    -10.24239029	      0.29414594	     -0.10305942	     -7.12522239	      0.29414594	     -0.08487246	     -5.78920423	      0.24669836	     -0.07881014	     -3.56229948	      0.18739494	     -0.07274782	    -44.53123722	      1.36852745	     -0.53946876	      0.00000000	      0.00000000	     49.83057091	    -24.83666573	     15.38477950	     67.97156359	     58.13394298	     -1.29737558	     25.37974021	     58.58449616	    -24.79985249	     26.60865688	     60.07412310	     59.16512303	      6.55623891	     23.43531632
     39.43000000	      0.26329745	     12.21469470	     91.61890204	      0.40632926	      0.94414379	      0.29352731	     -1.64044536	     -4.45296340	     -1.00929069	      0.28129651	    -16.11710302	      8.33923061	      0.00000000	      0.00000000	     -2.27745383	     -6.37212779	     -2.72640989	      0.23041509	    -13.20181222	      8.31681881	      0.00000000	      0.00000000	     -6.25044827	      0.12254283	     -0.09329539	    -11.60770748	      0.16298197	     -0.09912635	    -10.26886146	      0.29795065	     -0.09912635	     -7.14363732	      0.29795065	     -0.08163346	     -5.80416626	      0.24988935	     -0.07580250	     -3.57150614	      0.18981885	     -0.06997154	    -44.64632693	      1.38622905	     -0.51888095	      0.00000000	      0.00000000	     51.08842865	    -24.19092863	     15.48125739	     66.36753815	     58.14379382	     -1.21903874	     25.08598650	     60.01885335	    -24.31192946	     27.14735092	     58.12059739	     58.77728469	      6.56266082	     23.03644421
     39.44000000	      0.27979873	     11.96683424	     91.56807415	      0.40616446	      0.94400115	      0.29461149	     -1.28436995	     -4.45290545	     -0.85268039	      0.28156447	    -16.13245591	      8.18199103	      0.00000000	      0.00000000	     -1.93493974	     -6.35541139	     -2.72669859	      0.23039728	    -13.20079184	      8.14558925	      0.00000000	      0.00000000	     -6.27006772	      0.12415252	     -0.07147419	    -11.64414276	      0.16512286	     -0.07594133	    -10.30109425	      0.30186444	     -0.07594133	     -7.16606039	      0.30186444	     -0.06253992	     -5.82238488	      0.25317182	     -0.05807278	     -3.58271669	      0.19231226	     -0.05360564	    -44.78646669	      1.40443817	     -0.39751801	      0.00000000	      0.00000000	     52.21240692	    -23.75352839	     15.53009068	     64.89633918	     58.23857768	     -0.80183063	     24.00388146	     61.53269744	    -23.78646427	     28.12971211	     56.16541570	     57.63289677	      6.72387137	     21.48646262
     39.45000000	      0.35466425	     11.71334201	     91.42366646	      0.40615414	      0.94394063	      0.29568361	     -0.91885928	     -4.38975344	     -0.62983939	      0.28083245	    -16.09051413	      7.86393731	      0.00000000	      0.00000000	     -1.58702901	     -6.40318323	     -2.73955980	      0.23105042	    -13.23821399	      7.90038365	      0.00000000	      0.00000000	     -6.30017512	      0.12614956	     -0.06948300	    -11.70005521	      0.16777891	     -0.07382569	    -10.35055770	      0.30672004	     -0.07382569	     -7.20047014	      0.30672004	     -0.06079763	     -5.85034261	      0.25724418	     -0.05645494	     -3.59992006	      0.19540567	     -0.05211225	    -45.00152085	      1.42702905	     -0.38644361	      0.00000000	      0.00000000	     53.38274227	    -22.95386727	     15.30311269	     63.56711631	     58.18573753	     -0.80452082	     23.87899517	     62.63386247	    -23.35912948	     28.12291044	     54.62572663	     57.45876697	      6.65149964	     21.31151258
     39.46000000	      0.37838922	     11.40579963	     91.31017244	      0.40604783	      0.94376707	      0.29660684	     -0.57531048	     -4.39049037	     -0.54208574	      0.27780610	    -15.91711729	      7.71321689	      0.00000000	      0.00000000	     -1.23484631	     -6.38530885	     -2.85332047	      0.22984737	    -13.16928445	      7.80551135	      0.00000000	      0.00000000	     -6.30668745	      0.12340571	     -0.05882637	    -11.71214927	      0.16412959	     -0.06250302	    -10.36125681	      0.30004864	     -0.06250302	     -7.20791309	      0.30004864	     -0.05147307	     -5.85638997	      0.25164892	     -0.04779642	     -3.60364121	      0.19115544	     -0.04411978	    -45.04803780	      1.39599005	     -0.32717462	      0.00000000	      0.00000000	     54.59124145	    -22.27177241	     15.34075215	     61.77712032	     58.18141387	     -0.75956955	     23.64451842	     63.88780555	    -22.80192972	     28.55331899	     52.70477957	     57.24550629	      6.60904244	     20.98846089
